<?xml version="1.0" encoding="UTF-8"?>
<svg width="24px" height="24px" viewBox="0 0 24 24" version="1.1" xmlns="http://www.w3.org/2000/svg">
    <path d="M21.5 12c0 5.25-4.25 9.5-9.5 9.5S2.5 17.25 2.5 12 6.75 2.5 12 2.5s9.5 4.25 9.5 9.5zM12 4.5c-4.136 0-7.5 3.364-7.5 7.5 0 4.136 3.364 7.5 7.5 7.5 4.136 0 7.5-3.364 7.5-7.5 0-4.136-3.364-7.5-7.5-7.5zm3.5 7.5c0 1.933-1.567 3.5-3.5 3.5S8.5 13.933 8.5 12 10.067 8.5 12 8.5s3.5 1.567 3.5 3.5z" fill="#000000"/>
    <path d="M15.5 7.5c-.828 0-1.5-.672-1.5-1.5s.672-1.5 1.5-1.5 1.5.672 1.5 1.5-.672 1.5-1.5 1.5z" fill="#000000"/>
</svg>
