<?xml version="1.0" encoding="UTF-8"?>
<svg width="24px" height="24px" viewBox="0 0 24 24" version="1.1" xmlns="http://www.w3.org/2000/svg">
    <path d="M11.844 2.5c-.616 0-1.22.117-1.787.346a4.654 4.654 0 0 0-2.67-.346c-2.63.346-4.195 2.827-3.496 5.535.467 1.82 1.157 3.214 2.67 3.907v1.012c0 2.363 1.947 4.309 4.309 4.309 2.362 0 4.309-1.946 4.309-4.309v-.957c1.56-.693 2.25-2.143 2.67-3.962.7-2.708-.865-5.19-3.496-5.535a4.654 4.654 0 0 0-2.509.346zm.18 3.27a.82.82 0 0 1 .82.82.82.82 0 0 1-.82.819.82.82 0 0 1-.82-.82.82.82 0 0 1 .82-.819zm-3.725 0a.82.82 0 0 1 .82.82.82.82 0 0 1-.82.819.82.82 0 0 1-.82-.82.82.82 0 0 1 .82-.819zm3.95 3.158c-.484 1.161-1.55 1.955-2.786 1.955-1.237 0-2.302-.794-2.786-1.955-.064-.154.088-.316.251-.27.733.205 1.624.329 2.535.329.911 0 1.802-.124 2.535-.33.163-.045.315.117.251.271z" fill="#000000"/>
</svg>
