<?xml version="1.0" encoding="UTF-8"?>
<svg width="24px" height="24px" viewBox="0 0 24 24" version="1.1" xmlns="http://www.w3.org/2000/svg">
    <path d="M12 2C6.477 2 2 6.477 2 12C2 17.523 6.477 22 12 22C17.523 22 22 17.523 22 12C22 6.477 17.523 2 12 2ZM12 4.5C16.142 4.5 19.5 7.858 19.5 12C19.5 16.142 16.142 19.5 12 19.5C7.858 19.5 4.5 16.142 4.5 12C4.5 7.858 7.858 4.5 12 4.5ZM12 7C9.239 7 7 9.239 7 12C7 14.761 9.239 17 12 17C14.761 17 17 14.761 17 12C17 9.239 14.761 7 12 7Z" fill="#000000"/>
</svg>
