<?xml version="1.0" encoding="UTF-8"?>
<svg width="24px" height="24px" viewBox="0 0 24 24" version="1.1" xmlns="http://www.w3.org/2000/svg">
    <path d="M22.282 11.846c0-.813-.195-1.618-.57-2.341a4.757 4.757 0 0 0-1.573-1.724 4.813 4.813 0 0 0 .21-1.425c0-.813-.195-1.618-.57-2.341a4.846 4.846 0 0 0-1.557-1.724A4.846 4.846 0 0 0 16.026 1.5a4.846 4.846 0 0 0-2.341.195 4.846 4.846 0 0 0-1.724 1.557 4.813 4.813 0 0 0-1.425-.21c-.813 0-1.618.195-2.341.57a4.846 4.846 0 0 0-1.724 1.557A4.846 4.846 0 0 0 5.5 7.974c0 .488.065.975.195 1.441a4.757 4.757 0 0 0-1.573 1.724 4.813 4.813 0 0 0-.57 2.341c0 .813.195 1.618.57 2.341a4.757 4.757 0 0 0 1.573 1.724 4.813 4.813 0 0 0-.21 1.425c0 .813.195 1.618.57 2.341a4.846 4.846 0 0 0 1.557 1.724 4.846 4.846 0 0 0 2.195.791c.813 0 1.618-.195 2.341-.57a4.846 4.846 0 0 0 1.724-1.557c.456.13.928.195 1.425.195.813 0 1.618-.195 2.341-.57a4.846 4.846 0 0 0 1.724-1.557 4.846 4.846 0 0 0 .791-2.195c0-.488-.065-.975-.195-1.441a4.757 4.757 0 0 0 1.573-1.724c.375-.723.57-1.528.57-2.341z" fill="none" stroke="#000000" stroke-width="1.5"/>
</svg>
