<svg xmlns="http://www.w3.org/2000/svg" width="14" height="14" fill="none"><path stroke="currentColor" stroke-linecap="round" stroke-linejoin="round" d="m9.73 8.856-.015-.04-.009-.022.024.062Zm0 0c-.05.115-.104.223-.175.323a1.6 1.6 0 0 1-.377.377c-.1.07-.207.125-.323.175l-.04-.016-.022-.008s0 0 0 0L8.75 9.69l-.22-.085-.06-.023h0l-.127-.049-.18.467L9.73 8.856Zm-.98 1.454h0Zm0 0 .043-.017s0 0 0 0l-.044.017Zm-7.462-.567a.5.5 0 0 0-.027-.256A6.233 6.233 0 0 1 .75 7a6.25 6.25 0 1 1 12.459.724l-.483-.188A5.75 5.75 0 1 0 1.67 9.162v.001l.012.03h0c.044.107.078.193.093.263l.488-.11-.488.11c.016.07.023.127.023.2 0 .072-.013.153-.03.25h0l-.004.026h0l-.345 2.073a.5.5 0 0 0 .575.576l2.073-.346h0l.027-.004h0c.096-.017.177-.03.25-.03a.85.85 0 0 1 .2.023c.07.016.156.05.262.093h0l.03.012h.001a5.734 5.734 0 0 0 2.698.396l.188.484a6.233 6.233 0 0 1-3.074-.416l-.136-.055a.5.5 0 0 0-.257-.027l-.027.004h0l-.004.001-.075.012h-.001l-2.392.4h0a3.565 3.565 0 0 1-.293.04.605.605 0 0 1-.289-.037.583.583 0 0 1-.306-.307.604.604 0 0 1-.038-.289c.006-.08.023-.18.041-.292h0l.399-2.393h0l.013-.076h0V9.77l.004-.027Zm9.178-1.76a.5.5 0 0 0-.933 0l-.157.408.206.079-.206-.08-.017.046s0 0 0 0c-.084.218-.136.348-.211.453a1.1 1.1 0 0 1-.26.26c-.105.074-.234.127-.453.21h0l-.045.018h0l-.407.156a.5.5 0 0 0 0 .934l.407.156.079-.205-.079.205.045.018h0c.219.083.348.136.454.21.1.072.187.16.259.26.075.105.127.235.211.453l.246-.094-.246.094.017.045.157.407a.5.5 0 0 0 .933 0l.157-.407h0l.017-.045h0c.084-.218.136-.348.211-.453a1.1 1.1 0 0 1 .26-.26c.105-.074.234-.127.452-.21 0 0 0 0 0 0l.046-.018.407-.156a.5.5 0 0 0 0-.934l-.407-.156-.079.205.079-.205-.045-.018h0c-.219-.083-.348-.136-.454-.21a1.1 1.1 0 0 1-.259-.26c-.075-.105-.127-.235-.21-.453h0l-.018-.045h0l-.157-.407ZM10 6.5c.03 0 .056.018.066.046l.69 1.793c.096.249.142.37.212.467a.957.957 0 0 0 .225.226c.098.07.219.116.467.212l1.794.69a.071.071 0 0 1 0 .133l-1.794.69c-.248.095-.369.142-.467.211a.957.957 0 0 0-.225.226c-.07.097-.116.218-.212.467l-.69 1.793a.071.071 0 0 1-.133 0l-.69-1.793c-.096-.249-.142-.37-.212-.467a.957.957 0 0 0-.225-.226c-.098-.07-.219-.116-.467-.211l-1.794-.69a.071.071 0 0 1 0-.134l1.794-.69c.248-.095.369-.142.467-.211a.957.957 0 0 0 .225-.226c.07-.098.116-.218.212-.467l.69-1.793A.071.071 0 0 1 10 6.5Z"/></svg>
