<svg xmlns="http://www.w3.org/2000/svg" fill="none" viewBox="0 0 24 24"><path fill="currentColor" fill-rule="evenodd" d="M11.5 6a.5.5 0 0 1-.475-.342l-.263-.789a1 1 0 0 0-.632-.632l-.789-.263a.5.5 0 0 1 0-.949l.789-.263a1 1 0 0 0 .632-.632l.264-.79a.5.5 0 0 1 .948 0l.264.79a1 1 0 0 0 .632.632l.789.263a.5.5 0 0 1 0 .949l-.789.263a1 1 0 0 0-.632.632l-.264.789A.5.5 0 0 1 11.5 6ZM6 13a.667.667 0 0 1-.647-.505l-.23-.92a2.337 2.337 0 0 0-1.696-1.698l-.92-.23a.666.666 0 0 1 0-1.293l.92-.23a2.337 2.337 0 0 0 1.697-1.697l.23-.92a.667.667 0 0 1 1.293 0l.23.92a2.333 2.333 0 0 0 1.696 1.697l.92.23a.666.666 0 0 1 0 1.294l-.92.229a2.332 2.332 0 0 0-1.697 1.697l-.23.921A.667.667 0 0 1 6 13ZM13.5 23a.75.75 0 0 1-.72-.544l-.813-2.846a3.75 3.75 0 0 0-2.576-2.576l-2.846-.813a.75.75 0 0 1 0-1.442l2.846-.813a3.75 3.75 0 0 0 2.575-2.576l.814-2.846a.75.75 0 0 1 1.442 0l.813 2.846a3.75 3.75 0 0 0 2.575 2.576l2.846.813a.75.75 0 0 1 0 1.442l-2.846.813a3.749 3.749 0 0 0-2.575 2.576l-.813 2.846A.75.75 0 0 1 13.5 23Z" clip-rule="evenodd"/></svg>