<svg xmlns="http://www.w3.org/2000/svg" width="119" height="51" fill="none"><path fill="#000" d="M56.316 44.986c-10.9 0-16.445-6.334-16.445-14.252 0-9.374 7.521-17.861 18.42-17.861 10.9 0 16.446 6.334 16.446 14.251 0 9.374-7.521 17.862-18.421 17.862Zm.446-10.071c3.824 0 6.247-3.42 6.247-7.22 0-3.041-1.976-4.751-5.163-4.751-3.825 0-6.247 3.42-6.247 7.22 0 3.04 1.976 4.75 5.163 4.75ZM86.347 44.225H74.874l9.37-42.246h11.473l-9.37 42.246Z"/><path fill="#000" fill-rule="evenodd" d="M22.488 44.986c-3.505 0-6.947-1.267-8.923-3.99l-.697 3.211L0 51l1.39-6.793L10.76 1.98h11.473L18.92 16.863c2.677-2.913 5.163-3.99 8.35-3.99 6.884 0 11.473 4.497 11.473 12.731 0 8.487-5.29 19.382-16.254 19.382Zm4.398-16.975c0 3.927-2.804 6.904-6.437 6.904-2.04 0-3.889-.76-5.1-2.09l1.785-7.791c1.339-1.33 2.868-2.09 4.653-2.09 2.741 0 5.1 2.027 5.1 5.067Z" clip-rule="evenodd"/><path fill="#000" d="M107.654 44.986c-6.629 0-11.346-2.407-11.346-7.728 0-.443.064-1.52.255-2.407l2.486-11.337h-5.1l2.232-9.881h5.099l1.849-8.36L115.973 0l-1.371 5.285-1.849 8.348H119l-2.231 9.88h-6.247l-1.657 7.475a8.266 8.266 0 0 0-.191 1.456c0 1.457.892 2.47 2.868 2.47.574 0 1.403-.19 1.594-.316v9.12c-1.211.824-3.378 1.267-5.482 1.267Z"/></svg>
